<svg version="1.1" id="Layer_1" xmlns="http://www.w3.org/2000/svg" xmlns:xlink="http://www.w3.org/1999/xlink" x="0px" y="0px"
	 width="100%" viewBox="0 0 496 496" enable-background="new 0 0 496 496" xml:space="preserve">
<path fill="#000000" opacity="1.000000" stroke="none" 
	d="
M102.450310,205.307343 
	C144.305710,185.412567 191.232910,193.779160 221.347885,226.601532 
	C240.018814,246.951035 248.023392,271.164551 247.570526,298.782684 
	C246.886017,340.525574 215.079956,384.427307 164.293884,393.147369 
	C110.596840,402.367218 58.389301,364.834534 49.460907,311.576508 
	C41.986355,266.990662 64.407883,225.138962 102.450310,205.307343 
M176.569382,283.075684 
	C179.675995,280.788544 182.316666,278.015625 184.791183,275.084229 
	C205.869980,250.113602 198.577545,216.543915 169.001419,202.585861 
	C157.857895,197.326828 146.129288,197.665466 134.264221,199.149689 
	C86.642853,205.106689 48.325172,250.506775 51.904285,299.016296 
	C53.838886,325.236938 63.618107,347.252380 82.659302,365.136688 
	C96.392349,378.035370 112.598145,386.166718 131.360321,388.948120 
	C124.548370,385.956421 118.689034,381.588623 113.698212,376.208099 
	C100.925537,362.438141 95.072662,346.683167 101.700188,328.151337 
	C108.340843,309.582794 121.285614,297.549377 141.034653,294.799011 
	C153.516602,293.060699 165.850128,291.981079 176.569382,283.075684 
M137.186905,355.319397 
	C138.387177,356.199738 139.507339,357.226257 140.801422,357.935425 
	C146.766769,361.204468 154.424026,359.958221 159.106247,355.048279 
	C164.036545,349.878174 164.957047,342.190308 161.360214,336.223541 
	C157.696182,330.145325 150.467712,327.393311 143.768799,329.220947 
	C134.113831,331.855072 127.800591,344.658417 137.186905,355.319397 
z"/>
<path fill="#000000" opacity="1.000000" stroke="none" 
	d="
M431.388245,253.548264 
	C426.999176,254.730728 424.853149,257.513306 423.138123,261.230896 
	C417.545532,273.353577 410.743927,284.796844 402.773712,295.526306 
	C401.478394,297.270050 400.330933,298.964325 400.278046,301.343903 
	C400.056305,311.322540 399.871094,321.309845 399.257904,331.268433 
	C398.970764,335.932098 400.852539,336.888824 405.023193,336.786133 
	C408.059143,336.711365 411.070984,335.045776 415.129913,336.565063 
	C405.481262,343.297363 395.367371,344.085541 384.416962,344.168732 
	C389.665833,331.375732 386.818726,318.585114 387.940369,306.114685 
	C388.111816,304.208221 387.157898,302.559570 386.225311,300.977478 
	C378.701691,288.213531 371.085724,275.503174 363.669281,262.677368 
	C361.317047,258.609467 358.670380,256.095062 353.674255,258.135681 
	C353.004425,258.409271 352.094360,258.094757 351.196716,258.047363 
	C354.171478,251.022888 366.047638,247.343811 382.335022,248.280045 
	C381.325500,251.539917 377.707245,251.905533 375.460724,254.903488 
	C382.793884,267.149536 390.264709,279.625519 398.246429,292.954620 
	C406.021637,281.595764 411.834900,270.273254 416.575073,258.027496 
	C412.680481,256.582031 409.228119,257.785217 405.742096,257.686432 
	C409.269196,250.957443 415.125641,249.281540 437.401886,248.502625 
	C436.623077,251.616547 433.727661,252.008698 431.388245,253.548264 
z"/>
<path fill="#000000" opacity="1.000000" stroke="none" 
	d="
M316.846161,248.672668 
	C325.142120,248.356766 332.955719,247.998169 340.772919,247.758789 
	C342.688232,247.700134 345.227783,247.282303 345.768494,249.833206 
	C346.221619,251.970932 343.965088,252.767075 342.462982,253.712265 
	C340.492279,254.952347 338.454315,256.088135 336.418457,257.220581 
	C335.703979,257.618011 334.661194,258.360657 334.190094,258.119995 
	C327.004547,254.449005 319.583435,258.577606 312.333557,257.360138 
	C308.813995,256.769104 307.191040,258.308746 307.298309,262.114716 
	C307.730072,277.433594 306.721283,292.730316 306.349152,308.037689 
	C306.235840,312.697906 306.309906,317.362579 306.292908,322.025208 
	C306.276337,326.573822 304.394745,330.684418 302.890381,335.029694 
	C307.920258,336.936432 312.546967,333.862610 317.656311,334.710266 
	C309.541595,345.082764 298.711548,343.682617 287.204132,342.910431 
	C297.583405,329.607727 294.161804,314.421143 294.594208,299.904816 
	C294.955994,287.759521 294.574615,275.593689 294.706604,263.438995 
	C294.747742,259.651489 293.524597,258.002777 289.518982,258.145996 
	C281.036224,258.449310 272.540863,258.386322 264.052185,258.551025 
	C262.537079,258.580383 260.824097,259.031982 260.077759,257.380859 
	C259.335724,255.739410 260.633545,254.547668 261.826721,253.619858 
	C264.059723,251.883423 266.374451,250.252350 268.647919,248.567627 
	C269.620239,247.847061 270.683167,247.145569 271.820587,247.998474 
	C275.294098,250.603104 279.138885,249.379059 282.911011,249.290466 
	C294.061035,249.028625 305.213562,248.871796 316.846161,248.672668 
z"/>
<path fill="#000000" opacity="1.000000" stroke="none" 
	d="
M155.856567,260.193787 
	C146.866837,263.475159 139.195297,261.715027 134.447784,255.528503 
	C129.596252,249.206436 129.360382,240.857712 133.983627,234.702271 
	C138.539917,228.635986 144.757462,226.565613 152.038940,227.966110 
	C158.536087,229.215744 164.258469,235.377640 165.134628,242.110382 
	C166.156525,249.962784 163.194519,256.054749 155.856567,260.193787 
z"/>
</svg>