<svg width="390" height="201" viewBox="0 0 390 201" fill="none" xmlns="http://www.w3.org/2000/svg">
<path d="M54.4503 11.3073C96.3057 -8.58749 143.233 -0.2209 173.348 32.6015C192.019 52.951 200.023 77.1645 199.571 104.783C198.886 146.526 167.08 190.427 116.294 199.147C62.5968 208.367 10.3893 170.834 1.46091 117.576C-6.01364 72.9906 16.4079 31.1389 54.4503 11.3073ZM128.569 89.0756C131.676 86.7885 134.317 84.0156 136.791 81.0842C157.87 56.1135 150.578 22.5439 121.001 8.5858C109.858 3.32677 98.1293 3.66541 86.2642 5.14963C38.6429 11.1066 0.32518 56.5067 3.90429 105.016C5.83889 131.237 15.6181 153.252 34.6593 171.137C48.3924 184.035 64.5982 192.167 83.3603 194.948C76.5484 191.956 70.689 187.589 65.6982 182.208C52.9255 168.438 47.0727 152.683 53.7002 134.151C60.3409 115.583 73.2856 103.549 93.0347 100.799C105.517 99.0606 117.85 97.981 128.569 89.0756ZM89.1869 161.319C90.3872 162.2 91.5073 163.226 92.8014 163.935C98.7668 167.204 106.424 165.958 111.106 161.048C116.037 155.878 116.957 148.19 113.36 142.223C109.696 136.145 102.468 133.393 95.7688 135.221C86.1138 137.855 79.8006 150.658 89.1869 161.319Z" fill="black"/>
<path d="M383.388 59.5482C378.999 60.7307 376.853 63.5133 375.138 67.2309C369.546 79.3536 362.744 90.7968 354.774 101.526C353.478 103.27 352.331 104.964 352.278 107.344C352.056 117.323 351.871 127.31 351.258 137.268C350.971 141.932 352.853 142.889 357.023 142.786C360.059 142.711 363.071 141.046 367.13 142.565C357.481 149.297 347.367 150.086 336.417 150.169C341.666 137.376 338.819 124.585 339.94 112.115C340.112 110.208 339.158 108.56 338.225 106.977C330.702 94.2135 323.086 81.5032 315.669 68.6773C313.317 64.6094 310.67 62.095 305.674 64.1357C305.004 64.4093 304.094 64.0947 303.197 64.0473C306.171 57.0229 318.048 53.3438 334.335 54.28C333.326 57.5399 329.707 57.9055 327.461 60.9035C334.794 73.1495 342.265 85.6255 350.246 98.9546C358.022 87.5957 363.835 76.2732 368.575 64.0275C364.68 62.582 361.228 63.7852 357.742 63.6864C361.269 56.9574 367.126 55.2815 389.402 54.5026C388.623 57.6165 385.728 58.0087 383.388 59.5482Z" fill="#86C232"/>
<path d="M268.846 54.6726C277.142 54.3567 284.956 53.9981 292.773 53.7588C294.688 53.7001 297.228 53.2823 297.769 55.8332C298.222 57.9709 295.965 58.767 294.463 59.7122C292.492 60.9523 290.454 62.0881 288.418 63.2205C287.704 63.618 286.661 64.3606 286.19 64.12C279.005 60.449 271.583 64.5776 264.334 63.3601C260.814 62.7691 259.191 64.3087 259.298 68.1147C259.73 83.4336 258.721 98.7303 258.349 114.038C258.236 118.698 258.31 123.363 258.293 128.025C258.276 132.574 256.395 136.684 254.89 141.03C259.92 142.936 264.547 139.863 269.656 140.71C261.542 151.083 250.712 149.683 239.204 148.91C249.583 135.608 246.162 120.421 246.594 105.905C246.956 93.7595 246.575 81.5937 246.707 69.439C246.748 65.6515 245.525 64.0027 241.519 64.146C233.036 64.4493 224.541 64.3863 216.052 64.551C214.537 64.5804 212.824 65.032 212.078 63.3808C211.336 61.7394 212.634 60.5476 213.827 59.6198C216.06 57.8834 218.374 56.2523 220.648 54.5676C221.62 53.847 222.683 53.1455 223.821 53.9984C227.294 56.6031 231.139 55.379 234.911 55.2904C246.061 55.0286 257.214 54.8718 268.846 54.6726Z" fill="#86C232"/>
<path d="M107.857 66.1937C98.8669 69.475 91.1953 67.7149 86.4478 61.5284C81.5963 55.2063 81.3604 46.8576 85.9836 40.7022C90.5399 34.6359 96.7575 32.5655 104.039 33.966C110.536 35.2156 116.258 41.3775 117.135 48.1103C118.157 55.9627 115.195 62.0546 107.857 66.1937Z" fill="black"/>
</svg>
